<svg data-v-0dd9719b="" version="1.0" xmlns="http://www.w3.org/2000/svg" xmlns:xlink="http://www.w3.org/1999/xlink" width="100%" height="100%" viewBox="0 0 340.000000 250.000000" preserveAspectRatio="xMidYMid meet" color-interpolation-filters="sRGB" style="margin: auto;"> <rect data-v-0dd9719b="" x="0" y="0" width="100%" height="100%" fill="#ffffff" fill-opacity="1" class="background"></rect> <rect data-v-0dd9719b="" x="0" y="0" width="100%" height="100%" fill="url(#watermark)" fill-opacity="1" class="watermarklayer"></rect> <g data-v-0dd9719b="" fill="#2b2b2b" class="icon-text-wrapper icon-svg-group iconsvg" transform="translate(53.415000915527344,92.26784896850586)"><g class="iconsvg-imagesvg" transform="translate(0,0)"><g><rect fill="#2b2b2b" fill-opacity="0" stroke-width="2" x="0" y="0" width="59.99999999999963" height="65.46430558737808" class="image-rect"></rect> <svg x="0" y="0" width="59.99999999999963" height="65.46430558737808" filtersec="colorsb6076196887" class="image-svg-svg primary" style="overflow: visible;"><svg xmlns="http://www.w3.org/2000/svg" viewBox="0 0.00037716084625571966 252.15200805664062 275.1169128417969"><g><g><path d="M55.31 105c61.62 14.49 123.56 4.79 139.05 40a229.17 229.17 0 0 1 52.9 14.48 51.7 51.7 0 0 0-21-66.75L77.53 6.91A51.66 51.66 0 0 0 46.75.24C13.07 19.73 29.94 56.83 55.31 105z" fill="#f74dd2"></path><path d="M55.31 105C29.94 56.83 13.07 19.73 46.75.24A51.72 51.72 0 0 0 0 51.71v21.93C11.08 90.43 31.64 99.47 55.31 105zM194.36 145c10.49 23.82-11 53.19-30.49 73.38l62.47-36.1a51.68 51.68 0 0 0 20.92-22.8 229.17 229.17 0 0 0-52.9-14.48z" fill="#ffde49"></path><path d="M194.36 145c-40.78-6.07-79.75-.78-113.69 9 17 34.93 37.81 79.58 1 111.82l82.18-47.49c19.53-20.15 41-49.52 30.51-73.33z" fill="#2b2b2b"></path><path d="M80.67 154A371.3 371.3 0 0 0 0 188.64v34.81a51.77 51.77 0 0 0 77.64 44.74l4-2.33c35.98-31.49 17.13-74.58-.97-111.86z" fill="#4fd9fe"></path><path d="M55.31 105C31.64 99.47 11.08 90.43 0 73.64v115A371.3 371.3 0 0 1 80.67 154c-8.42-17.28-17.32-33.68-25.36-49z" fill="#2b2b2b"></path></g></g></svg></svg> <!----></g></g> <g transform="translate(67,6.005901336669922)"><g data-gra="path-name" fill-rule="" class="tp-name iconsvg-namesvg" transform="translate(0,0)"><g transform="scale(1)"><g><path d="M37.02-13.94L40.55-13.94 40.55-11.82Q40.55-11.56 40.35-11.37 40.16-11.18 39.91-11.18L39.91-11.18 36.98-11.18 36.8-4.59 39.65-4.59 39.65-2.47Q39.65-2.21 39.46-2.02 39.27-1.83 39.02-1.83L39.02-1.83 36.76-1.83 36.72-0.47Q36.72 4 32.26 4L32.26 4 23.21 4 23.21 1.23 30.56 1.23Q32.05 1.23 32.05-0.26L32.05-0.26 32.09-1.83 13.18-1.83 14.03-11.18 10.63-11.18 10.63-13.94 14.24-13.94 15-22.23Q13.56-21.25 11.86-20.49L11.86-20.49 11.86-23.25Q14.11-24.78 15.56-27.56 17-30.35 18.02-34.21L18.02-34.21 22.7-34.21Q22.14-31.92 21.38-30.18L21.38-30.18 39.44-30.18 39.44-28.05Q39.44-27.8 39.25-27.6 39.06-27.41 38.8-27.41L38.8-27.41 19.98-27.41Q18.53-25.03 16.32-23.21L16.32-23.21 37.23-23.21 37.02-13.94ZM8.71-24.74Q8.16-25.84 6.31-28.33 4.46-30.81 2.42-32.77L2.42-32.77 7.52-32.77Q9.82-30.35 12.33-24.74L12.33-24.74 8.71-24.74ZM8.25-15.43Q7.69-16.53 5.84-19.02 4-21.51 1.96-23.46L1.96-23.46 7.06-23.46Q9.35-21.04 11.86-15.43L11.86-15.43 8.25-15.43ZM19.51-20.44L18.91-13.94 32.34-13.94 32.51-20.44 19.51-20.44ZM25.63-19.89Q26.95-18.49 27.75-17.3 28.56-16.11 29.24-14.58L29.24-14.58 25.63-14.58Q24.78-16.23 20.95-19.89L20.95-19.89 25.63-19.89ZM6.25-11.6Q6.29-11.73 6.44-11.82 6.59-11.9 6.76-11.9L6.76-11.9 10.03-11.9 7.23 3.74 2.13 3.74 6.25-11.6ZM32.13-4.59L32.3-11.18 18.66-11.18 18.06-4.59 32.13-4.59ZM24.86-5.02Q24.01-6.67 20.19-10.33L20.19-10.33 24.86-10.33Q26.18-8.93 26.99-7.74 27.8-6.55 28.48-5.02L28.48-5.02 24.86-5.02ZM65.79-30.18L83.26-30.18 83.26-28.05Q83.26-27.8 83.07-27.6 82.88-27.41 82.62-27.41L82.62-27.41 65.79-27.41 65.79-23.76 80.54-23.76 80.54-0.64Q80.54 3.83 76.08 3.83L76.08 3.83 69.36 3.83 69.36 1.06 74.38 1.06Q75.86 1.06 75.86-0.43L75.86-0.43 75.86-21 51.64-21 51.64 3.27Q51.64 3.53 51.45 3.72 51.26 3.91 51 3.91L51 3.91 46.96 3.91 46.96-23.76 61.12-23.76 61.12-27.41 44.45-27.41 44.45-30.18 61.12-30.18 61.12-34.21 65.79-34.21 65.79-30.18ZM74.29-4.59L66.05-4.59 66.05 2.21Q66.05 2.47 65.85 2.66 65.66 2.85 65.41 2.85L65.41 2.85 61.37 2.85 61.37-4.59 52.49-4.59 52.49-7.35 61.37-7.35 61.37-11.43 52.78-11.43 52.78-14.2 58.44-14.2Q56.19-17.04 53.72-19.98L53.72-19.98 58.82-19.98Q60.48-17.6 62.3-14.2L62.3-14.2 65.62-14.2Q67.87-17.51 68.68-20.02L68.68-20.02 73.78-20.02Q72.08-17.17 69.49-14.2L69.49-14.2 74.67-14.2 74.67-12.07Q74.67-11.82 74.48-11.62 74.29-11.43 74.03-11.43L74.03-11.43 66.05-11.43 66.05-7.35 74.93-7.35 74.93-5.23Q74.93-4.97 74.74-4.78 74.55-4.59 74.29-4.59L74.29-4.59ZM107.61-23.29Q108.63-24.65 109.18-26.44L109.18-26.44 97.58-26.44 97.58-29.2 105.31-29.2Q103.32-31.92 101.36-34.21L101.36-34.21 106.04-34.21Q107.74-31.79 109.18-29.2L109.18-29.2 113.77-29.2Q115.73-31.79 116.45-34.21L116.45-34.21 121.13-34.21Q119.77-31.58 117.77-29.2L117.77-29.2 125.08-29.2 125.08-27.07Q125.08-26.82 124.89-26.63 124.69-26.44 124.44-26.44L124.44-26.44 113.98-26.44Q112.92-24.52 111.82-23.29L111.82-23.29 121.34-23.29 121.34-6.21Q121.34-1.74 116.88-1.74L116.88-1.74 100.6-1.74 100.6-23.29 107.61-23.29ZM97.41-24.23L93.92-24.23Q93.5-25.03 91.44-27.8 89.38-30.56 87.55-32.6L87.55-32.6 93.08-32.6Q94.09-31.24 95.05-29.35 96.01-27.46 97.03-25.08L97.03-25.08 97.41-24.23ZM116.66-17.21L116.66-20.53 105.27-20.53 105.27-17.21 116.66-17.21ZM103.28 0.6L125.5 0.6 124.65 3.36 101.75 3.36Q99.15 3.36 97.22 2.25 95.28 1.15 94.44-0.47L94.44-0.47Q93.5 1.62 91.23 2.83 88.95 4.04 86.95 4.29L86.95 4.29 86.95 1.53Q88.91 0.85 90.53-0.89 92.14-2.64 92.14-5.06L92.14-5.06 92.14-16.79 86.95-16.79 86.95-19.55 96.81-19.55 96.81-4.55Q96.9-1.62 98.43-0.51 99.96 0.6 103.28 0.6L103.28 0.6ZM116.66-10.84L116.66-14.45 105.27-14.45 105.27-10.84 116.66-10.84ZM115.17-4.5Q116.66-4.5 116.66-5.99L116.66-5.99 116.66-8.08 105.27-8.08 105.27-4.5 115.17-4.5ZM151.72-20.53Q151.51-21.12 150.05-23.82 148.58-26.52 146.8-29.3 145.01-32.09 143.56-33.45L143.56-33.45 149.09-33.45Q150.11-32.26 151.51-29.58 152.91-26.9 154.06-24.2 155.21-21.51 155.34-20.53L155.34-20.53 151.72-20.53ZM143.91 2.85Q139.95 2.85 139.95-1.1L139.95-1.1 139.95-25.42 144.63-25.42 144.63-1.28Q144.63 0.43 146.33 0.43L146.33 0.43 154.06 0.43Q155.42 0.43 155.55-1.06L155.55-1.06 156.15-9.39Q156.19-9.65 156.36-9.84 156.53-10.03 156.78-10.03L156.78-10.03 160.4-10.03 159.8-0.43Q159.72 1.32 158.82 2.13 157.93 2.93 156.02 2.85L156.02 2.85 143.91 2.85ZM164.52-6.12Q164.05-7.82 162.8-11.28 161.54-14.75 160.03-17.91 158.53-21.08 157.34-22.31L157.34-22.31 162.86-22.31Q164.01-20.57 165.79-14.85 167.58-9.14 168.13-6.12L168.13-6.12 164.52-6.12ZM132.73-4.89L129.12-4.89Q130.18-7.65 131.35-12.71 132.51-17.77 132.85-22.06L132.85-22.06 137.96-22.06Q137.15-17.26 135.87-13.41 134.6-9.56 133.15-5.91L133.15-5.91 132.73-4.89Z" transform="translate(-1.9600000381469727, 34.209999084472656)"></path></g> <!----> <!----> <!----> <!----> <!----> <!----> <!----></g></g> <g data-gra="path-slogan" fill-rule="" class="tp-slogan iconsvg-slogansvg" fill="#F74DD2" transform="translate(5,43.5)"><rect x="0" height="1" y="3.9750003814697266" width="28.81999969482422"></rect> <rect height="1" y="3.9750003814697266" width="28.81999969482422" x="127.3499984741211"></rect> <g transform="translate(31.81999969482422,0)"><g transform="scale(1)"><path d="M2.06-5.06L6.56-5.06L6.56-8.58L7.73-8.58L7.73 0L6.56 0L6.56-3.98L2.06-3.98L2.06 0L0.89 0L0.89-8.58L2.06-8.58L2.06-5.06ZM15.19 0L14.34-2.48L10.88-2.48L9.98 0L8.81 0L12.05-8.58L13.36-8.58L16.45 0L15.19 0ZM12.61-7.31L11.25-3.52L13.92-3.52L12.66-7.31L12.61-7.31ZM17.67-8.58L18.84-8.58L18.84 0L17.67 0L17.67-8.58ZM22.22-8.58L26.53-1.64L26.53-8.58L27.66-8.58L27.66 0L26.34 0L21.98-6.94L21.94-6.94L21.94 0L20.81 0L20.81-8.58L22.22-8.58ZM35.11 0L34.27-2.48L30.80-2.48L29.91 0L28.73 0L31.97-8.58L33.28-8.58L36.38 0L35.11 0ZM32.53-7.31L31.17-3.52L33.84-3.52L32.58-7.31L32.53-7.31ZM38.81-8.58L43.13-1.64L43.13-8.58L44.25-8.58L44.25 0L42.94 0L38.58-6.94L38.53-6.94L38.53 0L37.41 0L37.41-8.58L38.81-8.58ZM52.88 0L49.41 0L49.41-8.58L52.92-8.58Q56.39-8.39 56.53-4.41L56.53-4.41Q56.34-0.09 52.88 0L52.88 0ZM52.73-7.64L50.58-7.64L50.58-0.98L52.83-0.98Q55.27-1.13 55.36-4.31L55.36-4.31Q55.31-7.55 52.73-7.64L52.73-7.64ZM63.66 0L62.81-2.48L59.34-2.48L58.45 0L57.28 0L60.52-8.58L61.83-8.58L64.92 0L63.66 0ZM61.08-7.31L59.72-3.52L62.39-3.52L61.13-7.31L61.08-7.31ZM72.75-4.27L72.75-4.27Q72.56-7.64 69.75-7.83L69.75-7.83Q66.89-7.69 66.75-4.27L66.75-4.27Q66.89-0.94 69.75-0.80L69.75-0.80Q72.56-0.98 72.75-4.27ZM73.92-4.27L73.92-4.27Q73.64 0 69.75 0.14L69.75 0.14Q65.81 0 65.53-4.27L65.53-4.27Q65.77-8.72 69.75-8.81L69.75-8.81Q73.64-8.67 73.92-4.27ZM82.03-8.58L79.13-4.41L82.17 0L80.72 0L78.38-3.52L76.03 0L74.63 0L77.72-4.41L74.81-8.58L76.27-8.58L78.42-5.30L80.63-8.58L82.03-8.58ZM83.44-8.58L84.61-8.58L84.61 0L83.44 0L83.44-8.58ZM87.98-8.58L92.30-1.64L92.30-8.58L93.42-8.58L93.42 0L92.11 0L87.75-6.94L87.70-6.94L87.70 0L86.58 0L86.58-8.58L87.98-8.58Z" transform="translate(-0.890625, 8.8125)"></path></g></g></g></g></g><defs v-gra="od"></defs></svg>